<?xml version="1.0" encoding="iso-8859-1"?>
<!-- Generator: Adobe Illustrator 19.0.0, SVG Export Plug-In . SVG Version: 6.00 Build 0)  -->
<svg version="1.1" id="Capa_1" xmlns="http://www.w3.org/2000/svg" xmlns:xlink="http://www.w3.org/1999/xlink" x="0px" y="0px"
	 viewBox="0 0 512.002 512.002" style="enable-background:new 0 0 512.002 512.002;" xml:space="preserve">
<g>
	<g>
		<path d="M509.5,147.569l-68.267-68.267c-3.328-3.336-8.738-3.336-12.066,0c-3.336,3.337-3.336,8.73,0,12.066l62.234,62.234
			l-62.234,62.234c-3.336,3.336-3.336,8.73,0,12.066c1.664,1.664,3.849,2.5,6.033,2.5c2.185,0,4.369-0.836,6.033-2.5l68.267-68.267
			C512.836,156.299,512.836,150.906,509.5,147.569z"/>
	</g>
</g>
<g>
	<g>
		<path d="M509.5,352.369l-68.267-68.267c-3.328-3.337-8.738-3.337-12.066,0c-3.336,3.337-3.336,8.73,0,12.066l62.234,62.234
			l-62.234,62.234c-3.336,3.337-3.336,8.73,0,12.066c1.664,1.664,3.849,2.5,6.033,2.5c2.185,0,4.369-0.836,6.033-2.5l68.267-68.267
			C512.836,361.099,512.836,355.706,509.5,352.369z"/>
	</g>
</g>
<g>
	<g>
		<path d="M503.467,349.869h-85.333c-66.167,0-118.212-32.99-154.692-98.039c-39.159-69.845-97.801-106.761-169.574-106.761H8.533
			c-4.71,0-8.533,3.823-8.533,8.533s3.823,8.533,8.533,8.533h85.333c66.167,0,118.212,32.99,154.692,98.039
			c39.159,69.845,97.801,106.761,169.574,106.761h85.333c4.71,0,8.533-3.823,8.533-8.533S508.177,349.869,503.467,349.869z"/>
	</g>
</g>
<g>
	<g>
		<path d="M503.467,145.069h-85.333c-71.774,0-130.415,36.915-169.574,106.761c-36.48,65.05-88.525,98.039-154.692,98.039H8.533
			c-4.71,0-8.533,3.823-8.533,8.533s3.823,8.533,8.533,8.533h85.333c71.774,0,130.415-36.915,169.574-106.761
			c36.48-65.05,88.525-98.039,154.692-98.039h85.333c4.71,0,8.533-3.823,8.533-8.533S508.177,145.069,503.467,145.069z"/>
	</g>
</g>
<g>
</g>
<g>
</g>
<g>
</g>
<g>
</g>
<g>
</g>
<g>
</g>
<g>
</g>
<g>
</g>
<g>
</g>
<g>
</g>
<g>
</g>
<g>
</g>
<g>
</g>
<g>
</g>
<g>
</g>
</svg>
